<?xml version="1.0" encoding="UTF-8"?>
<svg id="Layer_1" data-name="Layer 1" xmlns="http://www.w3.org/2000/svg" viewBox="0 0 1920 1214">
  <defs>
    <style>
      .cls-1 {
        fill: #fff;
      }

      .cls-2 {
        fill: #dcb227;
      }

      .cls-3 {
        fill: #dfaf26;
      }

      .cls-4 {
        fill: #ae5f27;
      }

      .cls-5 {
        fill: #9bd9e8;
      }

      .cls-6 {
        fill: #282828;
      }

      .cls-7 {
        fill: #502b10;
      }

      .cls-8 {
        fill: #e5b222;
      }

      .cls-9 {
        fill: #162542;
        stroke: #231f20;
        stroke-miterlimit: 10;
      }

      .cls-10 {
        font-family: CascadiaCodeRoman-Bold, 'Cascadia Code';
        font-size: 71.87px;
        font-variation-settings: 'wght' 700;
        font-weight: 700;
      }

      .cls-10, .cls-11 {
        fill: #231f20;
      }

      .cls-12 {
        fill: #e0dfe5;
      }

      .cls-13 {
        fill: #3c1c13;
      }

      .cls-14 {
        fill: #feee0f;
      }

      .cls-15 {
        fill: #fcf8df;
      }

      .cls-16 {
        fill: #f0e924;
      }

      .cls-17 {
        fill: #bc5a27;
      }

      .cls-18 {
        fill: #aaabab;
      }

      .cls-19 {
        fill: #010101;
      }

      .cls-20 {
        fill: #faf9da;
      }
    </style>
  </defs>
  <g>
    <rect class="cls-1" y="884" width="1920" height="330"/>
    <rect class="cls-5" y="0" width="1920" height="891"/>
  </g>
  <g>
    <g>
      <g>
        <rect class="cls-20" x="803.84" y="272.64" width="54.9" height="388.73"/>
        <rect class="cls-20" x="797.53" y="257.8" width="66.77" height="14.84" rx="5" ry="5"/>
        <g>
          <polygon class="cls-12" points="858.75 272.64 803.82 272.64 795.68 285.99 866.9 285.99 858.75 272.64"/>
          <polygon class="cls-12" points="858.75 352.76 803.82 352.76 795.68 339.41 866.9 339.41 858.75 352.76"/>
          <rect class="cls-20" x="796.05" y="294.89" width="68.25" height="35.61"/>
          <rect class="cls-3" x="801.98" y="297.86" width="10.39" height="29.67"/>
          <rect class="cls-3" x="817.32" y="297.86" width="10.39" height="29.67"/>
          <rect class="cls-3" x="832.65" y="297.86" width="10.39" height="29.67"/>
          <rect class="cls-3" x="847.98" y="297.86" width="10.39" height="29.67"/>
          <rect class="cls-17" x="784.18" y="330.5" width="93.47" height="8.9"/>
          <rect class="cls-17" x="784.18" y="285.99" width="93.47" height="8.9"/>
        </g>
        <g>
          <polygon class="cls-12" points="858.75 542.68 803.82 542.68 795.68 556.03 866.9 556.03 858.75 542.68"/>
          <polygon class="cls-12" points="858.75 622.8 803.82 622.8 795.68 609.44 866.9 609.44 858.75 622.8"/>
          <rect class="cls-20" x="796.05" y="564.93" width="68.25" height="35.61"/>
          <rect class="cls-3" x="801.98" y="567.9" width="10.39" height="29.67"/>
          <rect class="cls-3" x="817.32" y="567.9" width="10.39" height="29.67"/>
          <rect class="cls-3" x="832.65" y="567.9" width="10.39" height="29.67"/>
          <rect class="cls-3" x="847.98" y="567.9" width="10.39" height="29.67"/>
          <rect class="cls-17" x="784.18" y="600.54" width="93.47" height="8.9"/>
          <rect class="cls-17" x="784.18" y="556.03" width="93.47" height="8.9"/>
        </g>
        <path class="cls-20" d="M822.46,213.29h15.43c3.11,0,5.64,2.53,5.64,5.64v38.87h-26.71v-38.87c0-3.11,2.53-5.64,5.64-5.64Z"/>
        <rect class="cls-20" x="807.92" y="231.09" width="44.51" height="8.9" rx="3" ry="3"/>
        <rect class="cls-20" x="827.21" y="170.26" width="5.93" height="43.03"/>
        <circle class="cls-20" cx="830.17" cy="198.45" r="5.93"/>
        <circle class="cls-20" cx="830.17" cy="183.62" r="4.45"/>
        <path class="cls-20" d="M842.53,164.62c-1.83,4.18-6.01,7.12-10.88,7.12-6.56,0-11.87-5.31-11.87-11.87,0-4.87,2.94-9.05,7.12-10.88-2.54,2.02-4.15,5.15-4.15,8.65,0,6.14,4.99,11.13,11.13,11.13,3.5,0,6.63-1.62,8.65-4.15Z"/>
      </g>
      <g>
        <rect class="cls-20" x="1062.01" y="272.64" width="54.9" height="388.73"/>
        <rect class="cls-20" x="1055.7" y="257.8" width="66.77" height="14.84" rx="5" ry="5"/>
        <g>
          <polygon class="cls-12" points="1116.92 272.64 1061.99 272.64 1053.85 285.99 1125.06 285.99 1116.92 272.64"/>
          <polygon class="cls-12" points="1116.92 352.76 1061.99 352.76 1053.85 339.41 1125.06 339.41 1116.92 352.76"/>
          <rect class="cls-20" x="1054.22" y="294.89" width="68.25" height="35.61"/>
          <rect class="cls-3" x="1060.15" y="297.86" width="10.39" height="29.67"/>
          <rect class="cls-3" x="1075.48" y="297.86" width="10.39" height="29.67"/>
          <rect class="cls-3" x="1090.81" y="297.86" width="10.39" height="29.67"/>
          <rect class="cls-3" x="1106.15" y="297.86" width="10.39" height="29.67"/>
          <rect class="cls-17" x="1042.35" y="330.5" width="93.47" height="8.9"/>
          <rect class="cls-17" x="1042.35" y="285.99" width="93.47" height="8.9"/>
        </g>
        <g>
          <polygon class="cls-12" points="1116.92 542.68 1061.99 542.68 1053.85 556.03 1125.06 556.03 1116.92 542.68"/>
          <polygon class="cls-12" points="1116.92 622.8 1061.99 622.8 1053.85 609.44 1125.06 609.44 1116.92 622.8"/>
          <rect class="cls-20" x="1054.22" y="564.93" width="68.25" height="35.61"/>
          <rect class="cls-3" x="1060.15" y="567.9" width="10.39" height="29.67"/>
          <rect class="cls-3" x="1075.48" y="567.9" width="10.39" height="29.67"/>
          <rect class="cls-3" x="1090.81" y="567.9" width="10.39" height="29.67"/>
          <rect class="cls-3" x="1106.15" y="567.9" width="10.39" height="29.67"/>
          <rect class="cls-17" x="1042.35" y="600.54" width="93.47" height="8.9"/>
          <rect class="cls-17" x="1042.35" y="556.03" width="93.47" height="8.9"/>
        </g>
        <path class="cls-20" d="M1080.63,213.29h15.43c3.11,0,5.64,2.53,5.64,5.64v38.87h-26.71v-38.87c0-3.11,2.53-5.64,5.64-5.64Z"/>
        <rect class="cls-20" x="1066.09" y="231.09" width="44.51" height="8.9" rx="3" ry="3"/>
        <rect class="cls-20" x="1085.37" y="170.26" width="5.93" height="43.03"/>
        <circle class="cls-20" cx="1088.34" cy="198.45" r="5.93"/>
        <circle class="cls-20" cx="1088.34" cy="183.62" r="4.45"/>
        <path class="cls-20" d="M1100.7,164.62c-1.83,4.18-6.01,7.12-10.88,7.12-6.56,0-11.87-5.31-11.87-11.87,0-4.87,2.94-9.05,7.12-10.88-2.54,2.02-4.15,5.15-4.15,8.65,0,6.14,4.99,11.13,11.13,11.13,3.5,0,6.63-1.62,8.65-4.15Z"/>
      </g>
    </g>
    <g>
      <polygon points="767.19 986.08 963.04 1010.05 963.04 627.25 762.73 665.88 767.19 986.08"/>
      <polygon class="cls-6" points="1154.5 981.91 961.55 1005.6 961.55 627.25 1158.89 665.43 1154.5 981.91"/>
      <polygon class="cls-7" points="767.24 988.98 962.24 1012.42 962.63 965.82 767.18 949.44 767.24 988.98"/>
      <polygon class="cls-4" points="1154.95 988.94 961.7 1012.38 961.32 965.78 1155 949.4 1154.95 988.94"/>
      <polygon class="cls-18" points="765.7 912.12 961.93 918.61 961.93 966.89 765.7 950.7 765.7 912.12"/>
      <polygon class="cls-8" points="764.22 723.69 963.04 695.5 963.04 721.54 764.22 744.78 764.22 723.69"/>
      <polygon class="cls-14" points="1158.89 723.93 963.04 695.74 963.04 721.78 1158.89 745.01 1158.89 723.93"/>
      <polygon class="cls-16" points="1087.67 915.09 1029.8 916.57 1029.8 765.23 1087.67 769.81 1087.67 915.09"/>
      <polygon class="cls-13" points="1060.22 844.61 1046.12 916.57 1074.32 916.57 1060.22 844.61"/>
      <polygon class="cls-1" points="1156.02 912.35 962.19 918.09 962 966.38 1155.88 950.93 1156.02 912.35"/>
      <g>
        <polygon class="cls-2" points="783.06 768.8 771.35 769.41 771.35 752.58 783.1 750.92 783.06 768.8"/>
        <polygon class="cls-2" points="827.86 766.46 810.53 767.37 810.68 747.01 828.1 744.54 827.86 766.46"/>
        <polygon class="cls-2" points="898.59 762.77 870.35 764.24 870.83 738.47 899.27 734.44 898.59 762.77"/>
        <polygon class="cls-2" points="795.92 766.23 790.45 759.16 795.99 751 801.76 758.06 795.92 766.23"/>
        <polygon class="cls-2" points="847.42 764.26 839.11 755.59 847.69 745.32 856.58 753.97 847.42 764.26"/>
        <polygon class="cls-2" points="931.9 759.47 917.69 748.32 932.66 734.41 948.2 745.5 931.9 759.47"/>
      </g>
      <g>
        <polygon class="cls-14" points="1131.37 766.5 1142.57 767.09 1142.57 751 1131.34 749.41 1131.37 766.5"/>
        <polygon class="cls-14" points="1088.57 764.27 1105.13 765.13 1104.99 745.67 1088.34 743.31 1088.57 764.27"/>
        <polygon class="cls-14" points="1020.99 760.74 1047.97 762.15 1047.51 737.52 1020.33 733.67 1020.99 760.74"/>
        <polygon class="cls-14" points="1119.09 764.05 1124.31 757.29 1119.02 749.49 1113.51 756.24 1119.09 764.05"/>
        <polygon class="cls-14" points="1069.88 762.16 1077.82 753.87 1069.62 744.06 1061.12 752.33 1069.88 762.16"/>
        <polygon class="cls-14" points="989.15 757.59 1002.73 746.93 988.42 733.64 973.58 744.23 989.15 757.59"/>
      </g>
    </g>
    <g>
      <g>
        <polygon class="cls-15" points="1920.51 1024 1155.57 989.94 1159.27 726.97 1920.51 650.99 1920.51 1024"/>
        <g>
          <path class="cls-9" d="M1205.15,795.59l-.72,54.59-35.41,1.11,.74-53.56c.14-10.19,3.9-19.31,9.36-24.32v-.86c.09-5.74,2.8-10.75,6.34-12.14l.03-1.99c.02-1.73,.96-3.21,2.08-3.3l.57-.05c1.13-.09,2.02,1.24,2,2.97l-.03,2c3.54,.83,6.16,5.46,6.08,11.25v.86c5.45,4.27,9.1,13.04,8.96,23.43Z"/>
          <path class="cls-9" d="M1253.83,792.63l-.69,56.01-37.27,1.17,.71-54.93c.14-10.45,4.08-19.81,9.81-24.96v-.88c.09-5.89,2.93-11.03,6.65-12.47l.03-2.04c.02-1.77,1-3.3,2.18-3.39l.6-.05c1.18-.1,2.13,1.27,2.11,3.05l-.03,2.05c3.72,.84,6.49,5.59,6.42,11.53v.89c5.75,4.37,9.6,13.36,9.46,24.02Z"/>
          <path class="cls-9" d="M1305.12,789.52l-.65,57.51-39.27,1.24,.68-56.36c.13-10.73,4.27-20.34,10.31-25.63v-.9c.08-6.04,3.08-11.33,6.99-12.81l.02-2.1c.02-1.82,1.05-3.38,2.3-3.49l.64-.05c1.25-.1,2.25,1.3,2.23,3.12l-.02,2.1c3.92,.86,6.85,5.72,6.78,11.82v.91c6.06,4.48,10.13,13.7,10.01,24.64Z"/>
          <path class="cls-9" d="M1359.23,786.24l-.61,59.09-41.44,1.3,.64-57.88c.12-11.01,4.48-20.89,10.84-26.34v-.93c.08-6.21,3.23-11.64,7.36-13.17l.02-2.15c.02-1.87,1.1-3.48,2.42-3.59l.67-.06c1.32-.11,2.37,1.33,2.35,3.2l-.02,2.16c4.14,.87,7.23,5.86,7.17,12.13v.93c6.41,4.59,10.72,14.05,10.6,25.3Z"/>
          <path class="cls-9" d="M1416.39,782.77l-.56,60.76-43.79,1.38,.6-59.48c.11-11.32,4.7-21.48,11.41-27.09v-.95c.07-6.38,3.39-11.97,7.76-13.55l.02-2.21c.02-1.92,1.16-3.58,2.55-3.69l.71-.06c1.39-.12,2.51,1.36,2.49,3.28l-.02,2.22c4.38,.89,7.65,6.01,7.59,12.45v.96c6.78,4.7,11.35,14.43,11.24,25.99Z"/>
          <path class="cls-9" d="M1476.88,779.1l-.51,62.52-46.35,1.46,.55-61.17c.11-11.64,4.94-22.1,12.03-27.88v-.98c.07-6.56,3.57-12.32,8.19-13.96l.02-2.28c.02-1.98,1.23-3.68,2.69-3.8l.75-.06c1.47-.12,2.66,1.39,2.64,3.37l-.02,2.28c4.64,.9,8.11,6.16,8.06,12.79v.99c7.19,4.83,12.04,14.82,11.94,26.71Z"/>
          <path class="cls-9" d="M1541,775.22l-.45,64.39-49.14,1.55,.5-62.96c.09-11.98,5.21-22.75,12.71-28.72v-1.01c.06-6.75,3.77-12.69,8.66-14.38l.02-2.34c.02-2.03,1.29-3.79,2.85-3.92l.8-.07c1.56-.13,2.82,1.42,2.8,3.46l-.02,2.35c4.92,.92,8.61,6.33,8.56,13.15v1.02c7.63,4.95,12.8,15.23,12.71,27.48Z"/>
          <path class="cls-9" d="M1609.07,771.09l-.38,66.38-52.19,1.64,.43-64.86c.08-12.34,5.49-23.45,13.45-29.61v-1.04c.05-6.96,3.98-13.08,9.17-14.84l.02-2.41c.01-2.1,1.37-3.91,3.02-4.05l.84-.07c1.66-.14,3,1.46,2.98,3.56v2.42c5.21,.93,9.14,6.5,9.1,13.53v1.05c8.12,5.09,13.62,15.67,13.55,28.3Z"/>
          <path class="cls-9" d="M1681.48,766.69l-.3,68.49-55.53,1.75,.36-66.87c.07-12.72,5.8-24.19,14.26-30.56v-1.07c.04-7.17,4.21-13.5,9.73-15.33v-2.49c.02-2.16,1.46-4.04,3.22-4.18l.9-.07c1.76-.15,3.19,1.5,3.18,3.67v2.5c5.55,.95,9.74,6.68,9.71,13.93v1.08c8.65,5.23,14.53,16.14,14.47,29.17Z"/>
          <path class="cls-9" d="M1758.66,762.01l-.21,70.74-59.2,1.86,.28-69.01c.05-13.13,6.14-24.97,15.15-31.58v-1.1c.03-7.4,4.47-13.95,10.34-15.85v-2.57c.02-2.23,1.55-4.17,3.42-4.33l.96-.08c1.88-.16,3.41,1.54,3.4,3.78v2.58c5.93,.96,10.4,6.87,10.38,14.36v1.12c9.24,5.38,15.53,16.63,15.48,30.09Z"/>
          <path class="cls-9" d="M1841.09,757.01l-.11,73.14-63.25,1.99,.19-71.3c.04-13.56,6.52-25.82,16.12-32.66v-1.14c.02-7.65,4.75-14.42,11.02-16.4v-2.66c.01-2.31,1.64-4.32,3.65-4.48l1.02-.09c2.01-.17,3.64,1.58,3.64,3.89v2.66c6.34,.98,11.13,7.07,11.12,14.82v1.15c9.89,5.54,16.63,17.15,16.61,31.07Z"/>
        </g>
        <g>
          <path class="cls-9" d="M1203.65,909.27l-.72,54.82-35.46-1.05,.74-53.78c.14-10.23,3.91-19.17,9.37-23.87v-.86c.09-5.76,2.81-10.64,6.35-11.82l.03-2c.02-1.74,.96-3.17,2.08-3.19h.57c1.13-.04,2.03,1.36,2,3.1l-.03,2c3.54,1.05,6.17,5.86,6.09,11.68v.87c5.46,4.63,9.11,13.66,8.97,24.1Z"/>
          <path class="cls-9" d="M1252.4,909.28l-.69,56.25-37.32-1.1,.72-55.16c.14-10.5,4.08-19.66,9.83-24.49v-.88c.09-5.91,2.94-10.91,6.66-12.12l.03-2.05c.02-1.78,1-3.25,2.19-3.28h.6c1.19-.04,2.13,1.39,2.11,3.18l-.03,2.06c3.73,1.07,6.5,6.01,6.42,11.98v.89c5.75,4.75,9.61,14.02,9.48,24.72Z"/>
          <path class="cls-9" d="M1303.76,909.28l-.66,57.76-39.33-1.16,.68-56.61c.13-10.77,4.28-20.18,10.32-25.13v-.9c.08-6.07,3.08-11.2,7-12.45l.02-2.1c.02-1.83,1.05-3.34,2.3-3.37h.64c1.25-.04,2.25,1.43,2.23,3.26l-.02,2.11c3.93,1.1,6.86,6.17,6.79,12.3v.91c6.07,4.87,10.15,14.39,10.02,25.38Z"/>
          <path class="cls-9" d="M1357.95,909.29l-.61,59.36-41.5-1.23,.65-58.14c.12-11.06,4.48-20.73,10.85-25.81v-.93c.08-6.23,3.23-11.51,7.37-12.79l.02-2.16c.02-1.88,1.11-3.43,2.42-3.46l.67-.02c1.32-.03,2.38,1.48,2.36,3.36l-.02,2.17c4.15,1.13,7.25,6.33,7.18,12.63v.94c6.42,5.01,10.73,14.78,10.62,26.08Z"/>
          <path class="cls-9" d="M1415.22,909.3l-.57,61.04-43.86-1.3,.6-59.75c.11-11.37,4.71-21.3,11.43-26.53v-.96c.07-6.41,3.4-11.83,7.77-13.15l.02-2.22c.02-1.93,1.16-3.53,2.55-3.56l.71-.02c1.39-.03,2.51,1.52,2.49,3.45l-.02,2.23c4.39,1.16,7.67,6.51,7.61,12.98v.97c6.79,5.14,11.37,15.2,11.26,26.81Z"/>
          <path class="cls-9" d="M1475.82,909.31l-.51,62.82-46.43-1.37,.55-61.46c.11-11.69,4.95-21.91,12.06-27.29v-.98c.07-6.59,3.58-12.17,8.2-13.53l.02-2.29c.02-1.99,1.23-3.63,2.7-3.66l.75-.02c1.47-.03,2.66,1.56,2.65,3.55l-.02,2.29c4.65,1.19,8.13,6.69,8.07,13.35v.99c7.2,5.29,12.06,15.63,11.97,27.59Z"/>
          <path class="cls-9" d="M1540.06,909.33l-.45,64.71-49.24-1.45,.5-63.26c.1-12.04,5.22-22.56,12.74-28.1v-1.01c.06-6.79,3.78-12.53,8.67-13.93l.02-2.35c.02-2.04,1.3-3.74,2.86-3.77l.8-.02c1.56-.04,2.83,1.6,2.81,3.65l-.02,2.36c4.93,1.22,8.63,6.89,8.58,13.75v1.02c7.65,5.45,12.82,16.1,12.74,28.41Z"/>
          <path class="cls-9" d="M1608.28,909.34l-.38,66.71-52.3-1.55,.44-65.18c.08-12.4,5.5-23.24,13.48-28.95v-1.04c.05-6.99,3.99-12.91,9.19-14.36l.02-2.43c.01-2.11,1.37-3.85,3.03-3.89l.85-.02c1.66-.04,3,1.65,2.99,3.76l-.02,2.43c5.24,1.26,9.18,7.09,9.13,14.16v1.05c8.14,5.61,13.65,16.59,13.58,29.28Z"/>
          <path class="cls-9" d="M1680.85,909.35l-.3,68.85-55.66-1.64,.36-67.21c.07-12.79,5.82-23.97,14.29-29.86v-1.08c.04-7.21,4.22-13.32,9.75-14.82v-2.5c.02-2.17,1.47-3.97,3.23-4.01l.9-.02c1.77-.04,3.2,1.7,3.19,3.88v2.51c5.56,1.29,9.77,7.31,9.73,14.61v1.09c8.67,5.79,14.56,17.11,14.5,30.21Z"/>
          <path class="cls-9" d="M1758.22,909.37l-.21,71.12-59.35-1.75,.28-69.38c.05-13.2,6.16-24.74,15.18-30.83v-1.11c.03-7.44,4.48-13.75,10.37-15.3v-2.58c.02-2.24,1.55-4.1,3.43-4.14l.96-.02c1.88-.04,3.41,1.75,3.41,4v2.59c5.94,1.33,10.43,7.54,10.41,15.08v1.12c9.26,5.97,15.56,17.67,15.52,31.2Z"/>
          <path class="cls-9" d="M1840.87,909.38l-.11,73.55-63.42-1.87,.19-71.69c.04-13.64,6.54-25.56,16.16-31.86v-1.15c.02-7.69,4.76-14.21,11.05-15.82v-2.67c.01-2.32,1.65-4.24,3.66-4.29l1.03-.02c2.01-.05,3.65,1.81,3.65,4.14v2.68c6.35,1.37,11.16,7.79,11.15,15.58v1.16c9.92,6.17,16.67,18.27,16.65,32.26Z"/>
        </g>
      </g>
      <g>
        <polygon class="cls-15" points="4.47 1026.02 767.34 988.96 763.65 725.99 1.49 650 4.47 1026.02"/>
        <g>
          <path class="cls-9" d="M718.12,794.82l.75,54.66,35.14,1.03-.75-53.6c-.14-10.21-3.88-19.34-9.3-24.35v-.86c-.09-5.75-2.79-10.77-6.3-12.16l-.03-2c-.02-1.73-.95-3.22-2.07-3.31l-.57-.05c-1.12-.09-2.01,1.25-1.98,2.98l.03,2c-3.51,.84-6.12,5.48-6.04,11.29v.87c-5.41,4.29-9.03,13.08-8.89,23.49Z"/>
          <path class="cls-9" d="M669.74,791.95l.75,56.11,37.01,1.09-.75-55c-.14-10.47-4.07-19.85-9.77-25v-.88c-.09-5.9-2.93-11.06-6.62-12.49l-.03-2.05c-.02-1.78-1-3.3-2.17-3.4l-.6-.05c-1.18-.1-2.12,1.27-2.09,3.06l.03,2.05c-3.7,.85-6.45,5.61-6.37,11.57v.89c-5.71,4.4-9.52,13.41-9.38,24.1Z"/>
          <path class="cls-9" d="M618.73,788.92l.74,57.64,39.04,1.15-.75-56.47c-.14-10.75-4.27-20.39-10.28-25.69v-.9c-.09-6.06-3.08-11.36-6.97-12.84l-.03-2.1c-.02-1.83-1.05-3.4-2.29-3.5l-.63-.05c-1.24-.1-2.23,1.3-2.21,3.14l.03,2.11c-3.9,.86-6.81,5.75-6.73,11.87v.91c-6.03,4.5-10.06,13.76-9.92,24.74Z"/>
          <path class="cls-9" d="M564.85,785.72l.74,59.26,41.24,1.21-.74-58.02c-.14-11.05-4.49-20.95-10.84-26.41v-.93c-.09-6.23-3.24-11.68-7.36-13.21l-.03-2.16c-.02-1.88-1.11-3.49-2.42-3.6l-.67-.06c-1.31-.11-2.36,1.33-2.34,3.22l.03,2.17c-4.13,.88-7.2,5.9-7.12,12.19v.94c-6.37,4.62-10.64,14.12-10.5,25.41Z"/>
          <path class="cls-9" d="M507.86,782.34l.73,60.97,43.63,1.28-.74-59.66c-.14-11.36-4.74-21.55-11.44-27.18v-.96c-.09-6.41-3.42-12.02-7.77-13.6l-.03-2.22c-.02-1.93-1.17-3.59-2.55-3.71l-.71-.06c-1.39-.11-2.5,1.37-2.48,3.3l.03,2.23c-4.37,.9-7.62,6.05-7.54,12.52v.97c-6.75,4.74-11.28,14.51-11.14,26.12Z"/>
          <path class="cls-9" d="M447.48,778.75l.72,62.78,46.24,1.36-.73-61.39c-.14-11.69-5-22.19-12.09-27.99v-.98c-.09-6.59-3.61-12.38-8.22-14.02l-.03-2.29c-.02-1.99-1.23-3.7-2.7-3.82l-.75-.06c-1.47-.12-2.65,1.4-2.63,3.39l.03,2.29c-4.63,.91-8.08,6.21-8,12.87v.99c-7.16,4.86-11.97,14.91-11.84,26.87Z"/>
          <path class="cls-9" d="M383.4,774.94l.71,64.7,49.08,1.44-.72-63.23c-.14-12.04-5.28-22.86-12.81-28.86v-1.01c-.09-6.79-3.82-12.76-8.71-14.46l-.03-2.36c-.02-2.05-1.31-3.82-2.87-3.94l-.8-.07c-1.56-.13-2.81,1.44-2.79,3.49l.03,2.36c-4.92,.93-8.59,6.38-8.51,13.24v1.02c-7.61,4.99-12.73,15.34-12.59,27.66Z"/>
          <path class="cls-9" d="M315.26,770.9l.7,66.75,52.2,1.53-.71-65.18c-.13-12.41-5.59-23.58-13.59-29.78v-1.04c-.09-7-4.05-13.17-9.25-14.93l-.03-2.43c-.02-2.11-1.39-3.94-3.04-4.08l-.85-.07c-1.66-.14-2.99,1.47-2.97,3.59l.03,2.44c-5.23,.94-9.14,6.55-9.06,13.64v1.06c-8.1,5.13-13.56,15.8-13.43,28.5Z"/>
          <path class="cls-9" d="M242.68,766.59l.68,68.93,55.62,1.63-.69-67.26c-.13-12.81-5.93-24.34-14.44-30.76v-1.08c-.08-7.23-4.3-13.6-9.84-15.43l-.03-2.51c-.02-2.18-1.47-4.07-3.24-4.21l-.9-.07c-1.77-.15-3.19,1.51-3.17,3.7l.03,2.52c-5.57,.96-9.75,6.74-9.67,14.05v1.09c-8.65,5.28-14.48,16.28-14.35,29.4Z"/>
          <path class="cls-9" d="M165.2,761.99l.66,71.25,59.39,1.74-.68-69.47c-.13-13.23-6.31-25.16-15.38-31.8v-1.11c-.08-7.46-4.57-14.06-10.48-15.97l-.02-2.59c-.02-2.25-1.57-4.21-3.45-4.36l-.96-.08c-1.89-.16-3.41,1.55-3.39,3.81l.02,2.6c-5.95,.98-10.42,6.94-10.35,14.5v1.13c-9.24,5.43-15.48,16.79-15.36,30.35Z"/>
          <path class="cls-9" d="M82.31,757.06l.63,73.74,63.56,1.87-.65-71.83c-.12-13.68-6.72-26.03-16.42-32.92v-1.15c-.08-7.72-4.88-14.55-11.2-16.54l-.02-2.68c-.02-2.33-1.68-4.36-3.69-4.52l-1.03-.08c-2.02-.17-3.65,1.6-3.63,3.93l.02,2.69c-6.37,.99-11.16,7.15-11.09,14.97v1.17c-9.9,5.6-16.6,17.33-16.48,31.37Z"/>
        </g>
        <g>
          <path class="cls-9" d="M719.67,908.57l.75,54.76,35.14-1.17-.75-53.7c-.14-10.23-3.88-19.15-9.3-23.83v-.86c-.09-5.76-2.79-10.63-6.3-11.8l-.03-2c-.02-1.74-.95-3.17-2.07-3.19h-.57c-1.12-.03-2.01,1.36-1.98,3.1l.03,2c-3.51,1.06-6.12,5.88-6.04,11.7v.87c-5.41,4.64-9.03,13.69-8.89,24.11Z"/>
          <path class="cls-9" d="M671.3,908.72l.75,56.21,37.01-1.23-.75-55.1c-.14-10.49-4.07-19.65-9.77-24.45v-.88c-.09-5.91-2.93-10.91-6.62-12.11l-.03-2.05c-.02-1.78-1-3.25-2.17-3.27h-.6c-1.18-.04-2.12,1.4-2.09,3.18l.03,2.06c-3.7,1.08-6.45,6.03-6.37,12v.89c-5.71,4.77-9.52,14.05-9.38,24.75Z"/>
          <path class="cls-9" d="M620.27,908.88l.74,57.75,39.05-1.3-.75-56.58c-.14-10.77-4.27-20.17-10.28-25.11v-.91c-.09-6.07-3.08-11.2-6.98-12.44l-.03-2.11c-.02-1.83-1.05-3.34-2.29-3.36h-.63c-1.24-.04-2.23,1.43-2.21,3.27l.03,2.11c-3.91,1.11-6.81,6.19-6.73,12.33v.91c-6.03,4.89-10.06,14.43-9.92,25.43Z"/>
          <path class="cls-9" d="M566.39,909.05l.74,59.38,41.25-1.37-.74-58.13c-.14-11.07-4.5-20.73-10.84-25.81v-.93c-.09-6.24-3.24-11.51-7.36-12.79l-.03-2.17c-.02-1.88-1.11-3.43-2.42-3.46h-.67c-1.31-.04-2.36,1.47-2.34,3.36l.03,2.17c-4.13,1.14-7.2,6.36-7.12,12.67v.94c-6.37,5.03-10.65,14.83-10.51,26.14Z"/>
          <path class="cls-9" d="M509.38,909.22l.73,61.09,43.64-1.45-.74-59.78c-.14-11.38-4.74-21.32-11.44-26.54v-.96c-.09-6.42-3.42-11.84-7.77-13.15l-.03-2.23c-.02-1.93-1.17-3.53-2.55-3.56h-.71c-1.39-.04-2.5,1.51-2.48,3.45l.03,2.23c-4.37,1.17-7.62,6.54-7.54,13.03v.97c-6.75,5.17-11.28,15.26-11.14,26.89Z"/>
          <path class="cls-9" d="M448.98,909.41l.72,62.91,46.25-1.54-.73-61.52c-.14-11.71-5-21.94-12.1-27.31v-.98c-.09-6.61-3.61-12.19-8.22-13.54l-.03-2.29c-.02-1.99-1.24-3.63-2.7-3.66l-.75-.02c-1.47-.03-2.65,1.57-2.63,3.57l.03,2.3c-4.63,1.2-8.08,6.73-8.01,13.41v1c-7.16,5.32-11.98,15.71-11.84,27.69Z"/>
          <path class="cls-9" d="M384.88,909.61l.71,64.84,49.1-1.63-.72-63.36c-.14-12.07-5.28-22.6-12.81-28.14v-1.01c-.09-6.81-3.82-12.56-8.71-13.95l-.03-2.36c-.02-2.05-1.31-3.75-2.87-3.78l-.8-.02c-1.56-.03-2.82,1.62-2.79,3.67l.03,2.37c-4.92,1.24-8.59,6.93-8.51,13.81v1.03c-7.61,5.48-12.74,16.18-12.6,28.53Z"/>
          <path class="cls-9" d="M316.72,909.82l.7,66.9,52.22-1.74-.71-65.32c-.14-12.44-5.6-23.3-13.59-29.01v-1.05c-.09-7.02-4.05-12.95-9.25-14.39l-.03-2.44c-.02-2.11-1.39-3.86-3.04-3.9l-.85-.02c-1.66-.03-3,1.67-2.97,3.79l.03,2.44c-5.23,1.27-9.14,7.14-9.07,14.24v1.06c-8.11,5.66-13.57,16.69-13.43,29.43Z"/>
          <path class="cls-9" d="M244.1,910.05l.68,69.09,55.65-1.85-.7-67.41c-.13-12.84-5.94-24.04-14.45-29.94v-1.08c-.08-7.24-4.3-13.37-9.84-14.86l-.03-2.51c-.02-2.18-1.47-3.99-3.24-4.02l-.9-.02c-1.77-.04-3.19,1.72-3.17,3.91l.03,2.52c-5.58,1.31-9.75,7.37-9.68,14.7v1.09c-8.65,5.84-14.48,17.23-14.35,30.39Z"/>
          <path class="cls-9" d="M166.57,910.29l.66,71.42,59.43-1.97-.68-69.63c-.13-13.26-6.31-24.84-15.39-30.93v-1.12c-.08-7.48-4.58-13.81-10.49-15.36l-.02-2.6c-.02-2.26-1.57-4.12-3.46-4.16l-.96-.02c-1.89-.04-3.41,1.77-3.39,4.04l.02,2.61c-5.96,1.35-10.42,7.61-10.35,15.19v1.13c-9.25,6.03-15.49,17.81-15.37,31.41Z"/>
          <path class="cls-9" d="M83.62,910.55l.63,73.92,63.6-2.11-.65-72c-.12-13.71-6.73-25.68-16.43-31.99v-1.15c-.08-7.74-4.88-14.29-11.21-15.89l-.02-2.69c-.02-2.33-1.68-4.27-3.69-4.31l-1.03-.02c-2.02-.04-3.65,1.83-3.63,4.17l.02,2.7c-6.38,1.4-11.17,7.87-11.1,15.71v1.17c-9.91,6.24-16.61,18.43-16.49,32.5Z"/>
        </g>
      </g>
    </g>
  </g>
  <text class="cls-10" transform="translate(691.04 1182)"><tspan x="0" y="0">Ihya us Sunnah</tspan></text>
  <g>
    <path class="cls-11" d="M854.52,1108.39c-1.54,0-2.97-.14-4.26-.42-1.3-.28-2.46-.8-3.47-1.56-1.02-.76-1.9-1.83-2.63-3.19-.74-1.37-1.32-3.14-1.74-5.32h-.17c-.26,.61-.58,1.22-.98,1.83-.4,.61-.83,1.16-1.3,1.65-.47,.49-.96,.89-1.47,1.19-.51,.3-1.02,.46-1.51,.46-2.64,0-4.87-.2-6.69-.6s-3.28-.91-4.39-1.54c-1.11-.63-1.91-1.34-2.39-2.12-.48-.78-.72-1.56-.72-2.33,0-.72,.16-1.54,.47-2.46,.32-.91,.71-1.83,1.19-2.75,.48-.92,1.01-1.81,1.6-2.67,.58-.85,1.16-1.57,1.72-2.16,.35-.35,.85-.74,1.49-1.17s1.4-.9,2.26-1.39c.87-.49,1.81-1.01,2.84-1.54,1.03-.54,2.11-1.09,3.23-1.65l2.91-1.47c-.05-.42-.08-.87-.11-1.33s-.04-.83-.04-1.09c0-.56,.19-1.12,.56-1.68s.91-1.25,1.61-2.07c.4-.51,.82-.98,1.26-1.4s.79-.63,1.05-.63c.33,0,.51,.16,.56,.49,.23,3.51,.57,7.06,1.02,10.65,.44,3.59,.91,7.19,1.4,10.79,.16,1.15,.42,2.12,.77,2.91,.35,.79,.82,1.44,1.4,1.93,.58,.49,1.3,.85,2.16,1.07,.85,.22,1.87,.33,3.04,.33l-.7,9.26Zm-25.87-46.4c.4-.68,.83-1.24,1.3-1.68,.47-.44,.97-.67,1.51-.67,.28,0,.64,.08,1.07,.25,.43,.16,1,.51,1.7,1.05,.66,.54,1.17,1.07,1.54,1.58,.37,.51,.56,1.07,.56,1.65,0,.35-.08,.75-.25,1.21-.16,.46-.45,1.01-.84,1.67-.44,.73-.89,1.32-1.35,1.77-.46,.46-.94,.68-1.46,.68-.3,0-.67-.08-1.11-.25-.43-.16-.99-.51-1.67-1.05-.63-.56-1.14-1.12-1.53-1.67s-.58-1.07-.58-1.56c0-.4,.08-.83,.23-1.28,.15-.46,.44-1.02,.86-1.7Zm13.09,30.53c-.09-1.33-.21-2.73-.33-4.19-.13-1.46-.24-2.86-.33-4.19h-.18c-.19,.33-.49,.66-.89,1-.41,.34-.75,.6-1.04,.79-.63,.35-1.39,.75-2.28,1.21-.89,.46-1.79,.93-2.69,1.42-.9,.49-1.73,1-2.49,1.53-.76,.53-1.33,1.04-1.7,1.53,.98,.89,2.12,1.5,3.42,1.84s2.66,.51,4.09,.51c.89,0,1.67-.11,2.35-.32,.68-.21,1.37-.58,2.07-1.12Zm-3.86-31.06c.4-.68,.83-1.24,1.3-1.68s.98-.67,1.54-.67c.3,0,.67,.08,1.09,.25,.42,.16,.97,.51,1.65,1.05,.68,.54,1.21,1.06,1.6,1.58,.39,.51,.58,1.07,.58,1.65,0,.35-.08,.75-.25,1.21-.16,.46-.47,1.01-.91,1.67-.42,.75-.86,1.35-1.32,1.79s-.94,.67-1.46,.67c-.28,0-.64-.08-1.09-.25-.45-.16-1.02-.51-1.72-1.05-.63-.54-1.14-1.09-1.51-1.65s-.56-1.09-.56-1.58c0-.37,.08-.79,.23-1.25s.43-1.04,.83-1.74Z"/>
    <path class="cls-11" d="M856.84,1049.29c1.99-.75,3.98-1.43,5.98-2.04,2-.61,4.13-1.17,6.4-1.68,.37-.07,.66-.1,.84-.1,.14,0,.23,.06,.28,.17,.05,.12,.07,.21,.07,.28,0,.19-.06,.49-.18,.91s-.27,.86-.47,1.32-.42,.86-.65,1.21c-.23,.35-.46,.55-.67,.6-2.25,.54-4.43,1.1-6.56,1.68-2.13,.59-4.33,1.36-6.6,2.32-.26,.14-.48,.21-.67,.21-.23,0-.35-.12-.35-.35,0-.21,.06-.54,.18-.98,.12-.44,.29-.91,.51-1.39s.49-.92,.81-1.33c.32-.41,.67-.68,1.07-.82Zm4.32,5.54c.05-.12,.17-.22,.39-.3,.21-.08,.55-.12,1.02-.12,.68,0,1.02,.15,1.02,.46,0,.4-.04,.86-.1,1.39-.07,.53-.16,.96-.28,1.32,.14,.12,.32,.21,.54,.28,.22,.07,.46,.11,.72,.11,.37,0,.71-.16,1.02-.47,.3-.32,.57-.71,.79-1.18,.22-.47,.4-.98,.54-1.54,.14-.56,.25-1.09,.32-1.58,.02-.28,.15-.48,.37-.6s.63-.18,1.21-.18c.51,0,.77,.18,.77,.53,0,.91-.08,1.9-.25,2.95s-.45,2.03-.86,2.93c-.41,.9-.96,1.65-1.67,2.25s-1.59,.89-2.67,.89c-.54,0-1.01-.09-1.4-.26-.4-.17-.71-.36-.95-.54-.21,.28-.45,.57-.72,.88-.27,.3-.58,.58-.93,.82-.35,.25-.76,.45-1.23,.6-.47,.15-1.02,.23-1.65,.23-.33,0-.66-.05-.98-.14-.33-.09-.63-.27-.9-.53-.27-.26-.49-.63-.65-1.11-.16-.48-.25-1.09-.25-1.84s.13-1.47,.39-2.23c.26-.76,.51-1.32,.77-1.67,.09-.23,.24-.39,.44-.46,.2-.07,.46-.11,.79-.11,.19,0,.38,.04,.58,.11,.2,.07,.3,.21,.3,.42,0,.28-.08,.66-.25,1.12-.16,.47-.25,.85-.25,1.16s.08,.57,.25,.79c.16,.22,.42,.33,.77,.33,.4,0,.75-.17,1.07-.53,.32-.35,.6-.77,.84-1.26,.25-.49,.46-1.01,.63-1.54,.18-.54,.32-.99,.44-1.37Z"/>
    <path class="cls-11" d="M877.02,1108.39c-1.52,0-2.87-.11-4.05-.33-1.18-.22-2.21-.59-3.09-1.11-.88-.51-1.63-1.19-2.25-2.02-.62-.83-1.14-1.87-1.56-3.11h-.25c-.59,.94-1.25,1.85-1.98,2.75s-1.48,1.61-2.23,2.12c-1.05,.61-2.18,1.04-3.39,1.3s-2.44,.39-3.7,.39c-.35,0-.71-.08-1.07-.23-.36-.15-.7-.37-1-.65-.3-.28-.55-.64-.74-1.07s-.28-.93-.28-1.49v-2.98c0-.49,.11-.92,.32-1.28,.21-.36,.49-.66,.84-.88,.35-.22,.75-.39,1.21-.51,.46-.12,.93-.17,1.42-.17,1.05,0,2.02-.13,2.91-.4,.89-.27,1.66-.6,2.32-1,.49-.28,.96-.74,1.4-1.39,.44-.64,.87-1.39,1.26-2.25s.75-1.78,1.07-2.79c.32-1.01,.58-2.02,.79-3.05,.05-.23,.13-.44,.25-.61,.12-.17,.32-.31,.6-.4,.28-.09,.67-.16,1.17-.21,.5-.05,1.16-.07,1.98-.07,.75,0,1.12,.3,1.12,.91,0,.16-.04,.5-.11,1.02s-.16,1.11-.26,1.77c-.11,.67-.22,1.36-.35,2.07-.13,.71-.24,1.36-.33,1.95,.19,1.66,1.02,2.82,2.49,3.47,1.47,.66,3.53,.98,6.18,.98l-.7,9.26Zm-17.65-34.74c.49-.75,1.01-1.37,1.56-1.86,.55-.49,1.15-.74,1.81-.74,.35,0,.78,.09,1.3,.26,.51,.18,1.18,.57,2,1.18,.79,.61,1.42,1.19,1.86,1.75,.44,.56,.67,1.17,.67,1.83,0,.4-.1,.85-.3,1.35-.2,.5-.53,1.12-1,1.84-.51,.82-1.04,1.47-1.58,1.97-.54,.49-1.12,.74-1.75,.74-.33,0-.76-.09-1.3-.26s-1.21-.56-2-1.14c-.77-.58-1.38-1.19-1.83-1.83s-.67-1.23-.67-1.79c0-.4,.09-.86,.26-1.39,.17-.53,.5-1.16,.96-1.91Z"/>
    <path class="cls-11" d="M899.41,1069.01c.05-.12,.18-.22,.39-.3,.21-.08,.55-.12,1.02-.12,.68,0,1.02,.15,1.02,.46,0,.4-.04,.86-.11,1.39s-.16,.96-.28,1.32c.14,.12,.32,.21,.54,.28,.22,.07,.46,.11,.72,.11,.37,0,.71-.16,1.02-.47s.57-.71,.79-1.18c.22-.47,.4-.98,.54-1.54s.25-1.09,.32-1.58c.02-.28,.15-.48,.37-.6,.22-.12,.62-.18,1.21-.18,.51,0,.77,.18,.77,.53,0,.91-.08,1.9-.25,2.95-.16,1.05-.45,2.03-.86,2.93s-.96,1.65-1.67,2.25-1.59,.89-2.67,.89c-.54,0-1.01-.09-1.4-.26-.4-.17-.71-.36-.95-.54-.21,.28-.45,.57-.72,.88-.27,.3-.58,.58-.93,.82-.35,.25-.76,.45-1.23,.6-.47,.15-1.02,.23-1.65,.23-.33,0-.65-.05-.98-.14-.33-.09-.63-.27-.89-.53-.27-.26-.49-.63-.65-1.11s-.25-1.09-.25-1.84,.13-1.47,.39-2.23c.26-.76,.51-1.32,.77-1.67,.09-.23,.24-.39,.44-.46,.2-.07,.46-.11,.79-.11,.19,0,.38,.04,.58,.11,.2,.07,.3,.21,.3,.42,0,.28-.08,.66-.25,1.12-.16,.47-.25,.85-.25,1.16s.08,.57,.25,.79c.16,.22,.42,.33,.77,.33,.4,0,.75-.17,1.07-.53,.32-.35,.6-.77,.84-1.26,.25-.49,.46-1.01,.63-1.54,.18-.54,.32-.99,.44-1.37Zm7.44-13.44c0,1.12-.16,2.23-.47,3.33-.32,1.1-.8,2.15-1.46,3.16-.68,1.03-1.38,1.9-2.11,2.62-.73,.71-1.53,1.29-2.4,1.74-.88,.45-1.84,.77-2.89,.98-1.05,.21-2.23,.33-3.54,.35-.42,0-.63-.3-.63-.91,0-.54,.05-.91,.16-1.12,.11-.21,.26-.36,.47-.46,.91-.26,1.71-.51,2.39-.77,.68-.26,1.28-.53,1.81-.81,.53-.28,.99-.58,1.39-.89,.4-.32,.79-.67,1.19-1.07-.35-.23-.7-.5-1.04-.81-.34-.3-.64-.65-.91-1.05-.27-.4-.49-.85-.65-1.35-.16-.5-.25-1.08-.25-1.74,0-.77,.22-1.52,.67-2.25s.98-1.37,1.6-1.93c.62-.56,1.27-1.01,1.95-1.33,.68-.33,1.25-.49,1.72-.49,.51,0,.96,.14,1.35,.4,.39,.27,.7,.63,.95,1.09,.25,.46,.43,.97,.54,1.54s.18,1.16,.18,1.77Zm-5.93-.18c0,.47,.19,.92,.56,1.37s.98,.87,1.83,1.26c.05-.16,.1-.36,.16-.58,.06-.22,.09-.43,.09-.61,0-.68-.06-1.26-.18-1.74s-.3-.72-.56-.72c-.56,0-1.02,.13-1.37,.39-.35,.26-.53,.47-.53,.63Z"/>
    <path class="cls-11" d="M928.19,1108.39c-.56,0-1.23-.06-2-.18-.77-.12-1.57-.37-2.39-.75-.82-.39-1.63-.94-2.42-1.65-.8-.71-1.49-1.66-2.07-2.83h-.18c-.73,2.01-1.56,3.56-2.51,4.65-.95,1.09-2.02,1.63-3.21,1.63-.84,0-1.65-.14-2.42-.42-.77-.28-1.5-.66-2.19-1.14-.69-.48-1.35-1.05-1.96-1.7-.62-.65-1.21-1.36-1.77-2.11-.61,.75-1.4,1.39-2.37,1.93s-2.01,.98-3.12,1.33c-1.11,.35-2.25,.61-3.4,.77-1.16,.16-2.24,.25-3.25,.25-.87,0-1.58-.1-2.14-.3-.56-.2-1-.46-1.32-.77-.32-.32-.54-.67-.67-1.05-.13-.39-.19-.75-.19-1.11h-.21c-.54,.61-1.24,1.13-2.11,1.56-.87,.43-1.81,.79-2.84,1.07-1.03,.28-2.1,.49-3.21,.61-1.11,.13-2.18,.19-3.21,.19-.35,0-.71-.08-1.07-.23-.36-.15-.7-.37-1-.67-.3-.29-.55-.66-.74-1.09-.19-.43-.28-.92-.28-1.46v-2.98c0-.47,.11-.88,.32-1.25,.21-.36,.49-.66,.84-.9,.35-.23,.75-.41,1.21-.53,.46-.12,.93-.17,1.42-.17,.79,0,1.65-.04,2.56-.11,.91-.07,1.81-.18,2.69-.33,.88-.15,1.7-.36,2.47-.63,.77-.27,1.42-.6,1.93-1,.35-.26,.7-.61,1.05-1.07,.35-.46,.69-.96,1.02-1.53,.33-.56,.63-1.14,.89-1.74,.27-.6,.5-1.16,.68-1.7,.07-.23,.23-.4,.47-.51,.25-.11,.72-.16,1.42-.16s1.25,.07,1.65,.19c.4,.13,.6,.32,.6,.58,0,.3-.05,.66-.16,1.07-.11,.41-.23,.84-.39,1.28-.15,.44-.31,.88-.47,1.3-.16,.42-.3,.78-.42,1.09-.09,.26-.18,.52-.26,.79-.08,.27-.12,.51-.12,.72,0,.66,.23,1.11,.7,1.35,.47,.25,1.04,.37,1.72,.37,1.68,0,3.1-.2,4.25-.6s2.09-.96,2.84-1.7c.75-.74,1.35-1.62,1.81-2.65s.85-2.18,1.18-3.44c.05-.23,.22-.42,.51-.54,.29-.13,.85-.19,1.67-.19s1.36,.06,1.61,.19c.26,.13,.39,.32,.39,.58,0,.4-.04,.83-.11,1.3-.07,.47-.16,.94-.26,1.42s-.22,.94-.33,1.39c-.12,.45-.22,.83-.32,1.16,.14,.49,.38,1,.72,1.51,.34,.51,.74,.97,1.21,1.37,.47,.4,.98,.73,1.54,.98,.56,.26,1.15,.39,1.75,.39,.54,0,1.02-.32,1.46-.97,.43-.64,.84-1.71,1.21-3.21,.19-.96,.34-1.95,.47-2.97,.13-1.02,.24-1.83,.33-2.44,.02-.33,.18-.65,.46-.96,.28-.32,.83-.63,1.65-.93,.79-.37,1.34-.59,1.65-.65,.3-.06,.5-.02,.6,.12,.09,.16,.13,.4,.1,.7-.02,.89-.09,1.81-.21,2.77-.12,.96-.23,1.92-.35,2.88,.44,1.47,1.23,2.6,2.35,3.37,1.12,.77,2.76,1.16,4.91,1.16l-.67,9.26Z"/>
    <path class="cls-11" d="M941.84,1052.06c0,.7-.06,1.39-.19,2.07-.13,.68-.45,1.29-.96,1.84s-1.29,.99-2.33,1.32c-1.04,.33-2.47,.49-4.3,.49-.51,0-1.01-.07-1.49-.21s-.91-.36-1.28-.65c-.37-.29-.68-.65-.91-1.09-.23-.43-.35-.95-.35-1.56,0-.87,.19-1.74,.56-2.62,.38-.88,.85-1.67,1.42-2.37,.57-.7,1.19-1.27,1.86-1.7,.67-.43,1.28-.65,1.84-.65,.61,0,1.27,.12,1.98,.37,.71,.25,1.38,.59,2,1.04,.62,.45,1.13,.98,1.54,1.61,.41,.63,.61,1.33,.61,2.11Zm-7.23,2.42c.49,0,1.03-.03,1.61-.09,.58-.06,1.15-.14,1.68-.25s1.02-.23,1.44-.37c.42-.14,.71-.28,.88-.42-.05-.35-.24-.7-.58-1.04-.34-.34-.75-.64-1.25-.89s-1.03-.49-1.61-.68c-.58-.2-1.13-.33-1.65-.4-.35,.05-.71,.18-1.07,.4-.36,.22-.69,.48-.98,.77s-.53,.58-.72,.88c-.19,.29-.28,.53-.28,.72,0,.47,.17,.81,.53,1.04,.35,.22,1.02,.33,2,.33Z"/>
    <path class="cls-11" d="M940.44,1074.94c.09,1.59,.2,3.21,.33,4.84,.13,1.64,.26,3.25,.39,4.83,.13,1.58,.24,3.08,.33,4.51,.09,1.43,.14,2.71,.14,3.86,0,1.26-.12,2.54-.37,3.84-.25,1.3-.55,2.51-.91,3.63-.36,1.12-.76,2.11-1.19,2.97-.43,.85-.84,1.46-1.21,1.81-1.31,.98-2.75,1.75-4.32,2.32s-3.38,.84-5.44,.84c-.35,0-.71-.08-1.07-.23-.36-.15-.7-.37-1-.65-.3-.28-.55-.64-.74-1.07s-.28-.93-.28-1.49v-2.98c0-.49,.11-.92,.32-1.28,.21-.36,.49-.66,.84-.88,.35-.22,.75-.39,1.21-.51,.46-.12,.93-.17,1.42-.17,1.43,0,2.77-.23,4.04-.7,1.26-.47,2.3-1.32,3.12-2.56,0-.61,0-1.22-.02-1.84-.01-.62-.02-1.23-.02-1.84-.33-3.04-.65-5.92-.97-8.65-.32-2.73-.53-5.33-.65-7.81-.02-.61-.04-1.17-.05-1.68-.01-.51,0-1.01,.05-1.47-.4-.4-.74-.96-1.04-1.68-.29-.72-.44-1.46-.44-2.21,0-.61,.11-1.22,.33-1.84,.22-.62,.51-1.23,.88-1.83,.36-.6,.78-1.18,1.25-1.74,.47-.56,.94-1.09,1.4-1.58,.21-.21,.37-.32,.49-.32,.3,0,.46,.14,.46,.42,.07,.56,.17,1.08,.32,1.54s.37,.95,.68,1.46c.32,.5,.74,1.05,1.28,1.63,.54,.58,1.23,1.28,2.07,2.07,.4,.4,.65,.72,.77,.96,.12,.25,.18,.51,.18,.79,0,.35-.08,.77-.23,1.26-.15,.49-.35,.97-.6,1.44-.25,.47-.53,.89-.84,1.26-.32,.38-.63,.62-.93,.74Z"/>
    <path class="cls-11" d="M954.87,1107.02c-.12,.28-.28,.49-.47,.61-.2,.13-.61,.19-1.25,.19s-1.03-.07-1.26-.21c-.23-.14-.35-.34-.35-.6-.07-.63-.09-1.42-.05-2.35s.02-1.8-.05-2.6c-.07-1.64-.18-3.39-.33-5.25-.15-1.86-.32-3.75-.49-5.67-.18-1.92-.36-3.83-.54-5.74-.19-1.91-.36-3.73-.51-5.47-.15-1.74-.28-3.36-.39-4.84s-.16-2.77-.16-3.84c0-.63,.24-1.28,.72-1.95s1.14-1.43,1.98-2.3c.56-.63,1.11-1.17,1.63-1.61s.96-.67,1.32-.67c.16,0,.31,.06,.44,.18,.13,.12,.19,.23,.19,.35,.02,1.45,.08,3.02,.16,4.7s.18,3.42,.3,5.21c.12,1.79,.24,3.6,.37,5.42,.13,1.83,.25,3.59,.35,5.28,.11,1.7,.19,3.3,.26,4.81,.07,1.51,.11,2.85,.11,4.02,0,1.31-.07,2.58-.19,3.83-.13,1.24-.29,2.4-.47,3.47-.19,1.08-.4,2.05-.63,2.91-.23,.87-.46,1.57-.67,2.11Z"/>
    <path class="cls-11" d="M993.93,1067.54c0,1.12-.16,2.23-.47,3.33-.32,1.1-.8,2.15-1.46,3.16-.68,1.03-1.38,1.9-2.11,2.61-.73,.71-1.53,1.29-2.4,1.74-.88,.44-1.84,.77-2.9,.98s-2.23,.33-3.54,.35c-.42,0-.63-.3-.63-.91,0-.54,.05-.91,.16-1.12s.26-.36,.47-.46c.91-.26,1.71-.51,2.39-.77,.68-.26,1.28-.53,1.81-.81,.53-.28,.99-.58,1.39-.9,.4-.32,.8-.67,1.19-1.07-.35-.23-.7-.5-1.04-.81-.34-.3-.64-.66-.91-1.05-.27-.4-.49-.85-.65-1.35-.16-.5-.25-1.08-.25-1.74,0-.77,.22-1.52,.67-2.25,.45-.72,.98-1.37,1.6-1.93,.62-.56,1.27-1.01,1.95-1.33,.68-.33,1.25-.49,1.72-.49,.51,0,.96,.13,1.35,.4,.39,.27,.7,.63,.95,1.09,.25,.46,.43,.97,.54,1.54,.12,.57,.17,1.16,.17,1.77Zm-5.93-.18c0,.47,.19,.92,.56,1.37,.37,.44,.98,.87,1.83,1.26,.05-.16,.1-.36,.16-.58s.09-.43,.09-.61c0-.68-.06-1.26-.17-1.74-.12-.48-.3-.72-.56-.72-.56,0-1.02,.13-1.37,.39s-.53,.47-.53,.63Z"/>
    <path class="cls-11" d="M1002.39,1095.54c.35,0,.53,.14,.53,.42,0,.35-.05,.8-.16,1.33s-.32,1.26-.65,2.18c-.33,.94-.67,1.73-1.02,2.37-.35,.64-.66,1-.91,1.07-2.67,.56-4.93,1.13-6.79,1.7-1.86,.57-3.42,1.12-4.67,1.65-1.25,.53-2.25,1.01-3,1.46-.75,.45-1.34,.84-1.77,1.18-.43,.34-.75,.6-.96,.79-.21,.19-.41,.28-.6,.28-.33,0-.54-.29-.65-.86-.1-.57-.16-1.3-.16-2.19,0-.66,.35-1.41,1.05-2.26s1.61-1.69,2.74-2.51c-1.5-.61-2.68-1.47-3.54-2.6s-1.3-2.35-1.3-3.69c0-.79,.17-1.66,.51-2.6,.34-.94,.81-1.88,1.4-2.83,.6-.95,1.3-1.85,2.11-2.72,.81-.87,1.68-1.64,2.62-2.32,.94-.68,1.92-1.22,2.95-1.63,1.03-.41,2.06-.61,3.09-.61,1.43,0,2.6,.33,3.53,1,.92,.67,1.39,1.59,1.39,2.76,0,.54-.11,1.23-.32,2.07-.21,.84-.52,1.66-.91,2.46-.21,.4-.48,.6-.81,.6-.26,0-.49-.1-.7-.3-.21-.2-.49-.42-.84-.65-.35-.23-.81-.45-1.37-.65-.56-.2-1.32-.3-2.28-.3-.75,0-1.42,.08-2.02,.25-.6,.16-1.11,.39-1.53,.67-.42,.28-.74,.6-.96,.95-.22,.35-.33,.7-.33,1.05,0,.61,.29,1.16,.86,1.67s1.26,.93,2.05,1.28c.8,.35,1.62,.62,2.46,.81,.84,.19,1.53,.28,2.07,.28,.73,0,1.57-.08,2.54-.25,.97-.16,1.91-.34,2.81-.53,.9-.19,1.68-.36,2.35-.53,.67-.16,1.07-.25,1.21-.25Z"/>
    <path class="cls-11" d="M1017.56,1108.39c-3.35,0-5.94-.99-7.77-2.97-1.84-1.98-2.92-5.11-3.25-9.39-.16-2.13-.33-4.39-.49-6.79-.16-2.4-.35-4.78-.54-7.14-.2-2.36-.42-4.63-.67-6.81s-.53-4.11-.86-5.79c0-.54,.23-1.13,.68-1.77s1.06-1.39,1.81-2.23c.7-.75,1.28-1.33,1.74-1.75s.82-.63,1.11-.63c.4,0,.65,.16,.77,.49,.23,1.29,.41,2.56,.53,3.83,.12,1.26,.21,2.53,.28,3.79l1.16,20.81c.07,1.1,.22,2.09,.44,2.97s.57,1.62,1.04,2.23,1.08,1.08,1.84,1.4c.76,.33,1.71,.49,2.86,.49l-.67,9.26Z"/>
    <path class="cls-11" d="M1019.8,1073.61c1.99-.75,3.98-1.43,5.98-2.04,2-.61,4.14-1.17,6.41-1.68,.37-.07,.65-.11,.84-.11,.14,0,.23,.06,.28,.18s.07,.21,.07,.28c0,.19-.06,.49-.18,.91s-.28,.86-.47,1.32c-.2,.46-.42,.86-.65,1.21-.23,.35-.46,.55-.67,.6-2.25,.54-4.43,1.1-6.56,1.68-2.13,.58-4.33,1.36-6.6,2.32-.26,.14-.48,.21-.67,.21-.23,0-.35-.12-.35-.35,0-.21,.06-.54,.17-.98,.12-.44,.29-.91,.51-1.39,.22-.48,.49-.92,.81-1.33s.67-.68,1.07-.82Z"/>
    <path class="cls-11" d="M1013.56,1115.86c.4-.7,.83-1.28,1.3-1.72,.47-.44,.97-.67,1.51-.67,.28,0,.64,.08,1.07,.25,.43,.16,1,.51,1.7,1.05,.66,.54,1.17,1.07,1.54,1.6,.37,.53,.56,1.07,.56,1.63,0,.35-.08,.75-.25,1.21-.16,.46-.44,1.02-.84,1.7-.45,.7-.9,1.28-1.35,1.74-.46,.46-.94,.68-1.46,.68-.3,0-.67-.08-1.11-.25-.43-.16-.99-.52-1.67-1.05-.63-.54-1.14-1.09-1.53-1.65-.39-.56-.58-1.09-.58-1.58,0-.4,.08-.82,.23-1.28s.44-1.01,.86-1.67Zm26.5-7.48c-1.52,0-2.87-.11-4.05-.33s-2.21-.59-3.09-1.11c-.88-.51-1.63-1.19-2.25-2.02-.62-.83-1.14-1.87-1.56-3.11h-.25c-.58,.94-1.25,1.85-1.98,2.75-.74,.9-1.48,1.61-2.23,2.12-1.05,.61-2.18,1.04-3.39,1.3-1.21,.26-2.44,.39-3.7,.39-.35,0-.71-.08-1.07-.23-.36-.15-.7-.37-1-.65-.3-.28-.55-.64-.74-1.07-.19-.43-.28-.93-.28-1.49v-2.98c0-.49,.11-.92,.32-1.28,.21-.36,.49-.66,.84-.88,.35-.22,.75-.39,1.21-.51,.46-.12,.93-.17,1.42-.17,1.05,0,2.02-.13,2.91-.4,.89-.27,1.66-.6,2.32-1,.49-.28,.96-.74,1.4-1.39s.87-1.39,1.26-2.25c.4-.85,.75-1.78,1.07-2.79,.32-1.01,.58-2.02,.79-3.05,.05-.23,.13-.44,.25-.61,.12-.17,.32-.31,.6-.4,.28-.09,.67-.16,1.18-.21,.5-.05,1.16-.07,1.98-.07,.75,0,1.12,.3,1.12,.91,0,.16-.04,.5-.1,1.02-.07,.51-.16,1.11-.26,1.77s-.22,1.36-.35,2.07c-.13,.71-.24,1.36-.33,1.95,.19,1.66,1.02,2.82,2.49,3.47,1.47,.66,3.53,.98,6.18,.98l-.7,9.26Zm-17.27,6.95c.4-.7,.83-1.28,1.3-1.72,.47-.44,.98-.67,1.54-.67,.3,0,.67,.08,1.09,.25,.42,.16,.97,.52,1.65,1.05,.68,.54,1.21,1.07,1.6,1.6s.58,1.07,.58,1.63c0,.35-.08,.75-.25,1.21-.16,.46-.47,1.02-.91,1.7-.42,.72-.86,1.31-1.32,1.75-.46,.44-.94,.67-1.46,.67-.28,0-.64-.08-1.09-.25-.44-.16-1.02-.52-1.72-1.05-.63-.54-1.13-1.08-1.51-1.63-.38-.55-.56-1.08-.56-1.6,0-.37,.08-.79,.23-1.25,.15-.46,.43-1.02,.83-1.7Z"/>
    <path class="cls-11" d="M1067.33,1065.01c0,.91-.06,1.81-.19,2.68-.13,.88-.45,1.66-.96,2.35s-1.29,1.25-2.33,1.67c-1.04,.42-2.47,.63-4.3,.63-.51,0-1.01-.09-1.49-.26s-.91-.45-1.28-.82c-.37-.37-.68-.84-.91-1.4-.23-.56-.35-1.22-.35-1.96,0-1.12,.19-2.25,.56-3.37,.38-1.12,.85-2.13,1.42-3.02,.57-.89,1.19-1.61,1.86-2.18,.67-.56,1.28-.84,1.84-.84,.61,0,1.27,.15,1.98,.46,.71,.3,1.38,.74,2,1.32,.62,.57,1.13,1.26,1.54,2.07,.41,.81,.61,1.7,.61,2.68Zm-7.23,3.33c.49,0,1.03-.05,1.61-.14,.58-.09,1.15-.21,1.68-.35,.54-.14,1.02-.3,1.44-.49,.42-.19,.71-.39,.88-.6-.05-.51-.25-1.01-.61-1.47-.36-.47-.8-.89-1.32-1.28-.51-.39-1.06-.71-1.63-.97-.57-.26-1.08-.43-1.53-.53-.35,.07-.71,.26-1.07,.58-.36,.32-.69,.68-.98,1.09-.29,.41-.53,.82-.72,1.23-.19,.41-.28,.74-.28,1,0,.66,.17,1.14,.53,1.46,.35,.32,1.02,.47,2,.47Z"/>
    <path class="cls-11" d="M1085.47,1090.07c0,.19-.09,.64-.26,1.35-.18,.71-.45,1.56-.83,2.54-.49,1.33-.92,2.37-1.28,3.11-.36,.74-.79,1.11-1.28,1.11-.66,0-1.39-.05-2.19-.14-.81-.09-1.48-.14-2.02-.14-1.45,0-2.86,.17-4.23,.51-1.37,.34-2.7,.77-3.98,1.3s-2.51,1.1-3.67,1.72-2.25,1.21-3.28,1.77c-1.45,.77-2.86,1.48-4.23,2.12-1.37,.64-2.88,1.19-4.53,1.65-1.65,.46-3.54,.81-5.67,1.05-2.13,.25-4.69,.37-7.69,.37-.35,0-.71-.08-1.07-.23-.36-.15-.7-.37-1-.67-.3-.29-.55-.66-.74-1.09-.19-.43-.28-.92-.28-1.46v-2.98c0-.49,.11-.92,.32-1.28,.21-.36,.49-.66,.84-.88,.35-.22,.75-.39,1.21-.51,.46-.12,.93-.17,1.42-.17,2.81,0,5.25-.08,7.32-.25,2.07-.16,3.88-.38,5.44-.65,1.56-.27,2.92-.57,4.09-.91s2.26-.69,3.26-1.05,1.99-.71,2.95-1.05c.96-.34,2.02-.65,3.19-.93v-.17c-1.38-.44-2.81-.92-4.28-1.42-1.47-.5-2.9-.96-4.28-1.39-1.38-.42-2.69-.77-3.93-1.04-1.24-.27-2.33-.4-3.26-.4-1.05,0-1.91,.12-2.56,.35-.66,.23-1.19,.49-1.61,.77-.42,.28-.76,.54-1.02,.77-.26,.23-.53,.35-.81,.35-.26,0-.44-.12-.54-.35-.11-.23-.16-.64-.16-1.23s.02-.99,.07-1.28c.05-.29,.13-.55,.25-.79,.94-2.34,2.08-4.08,3.42-5.21,1.34-1.13,2.85-1.7,4.51-1.7,1.19,0,2.39,.12,3.6,.35,1.21,.23,2.44,.54,3.7,.93,1.26,.39,2.56,.83,3.88,1.33,1.32,.5,2.71,1.04,4.16,1.6,2.55,1.05,5.22,1.92,8,2.6,2.78,.68,5.59,1.02,8.42,1.02,.42,0,.63,.23,.63,.7Z"/>
    <path class="cls-11" d="M1085.53,1113.61c1.99-.75,3.96-1.42,5.91-2.02s4.05-1.14,6.3-1.63c.37-.07,.65-.11,.84-.11,.12,0,.2,.05,.25,.14,.05,.09,.07,.16,.07,.21,0,.14-.05,.37-.14,.7-.09,.33-.22,.66-.37,1-.15,.34-.32,.64-.51,.91-.19,.27-.38,.42-.56,.44-2.25,.54-4.43,1.1-6.56,1.68-2.13,.58-4.33,1.36-6.6,2.32-.26,.14-.48,.21-.67,.21-.23,0-.35-.09-.35-.28s.06-.46,.18-.81c.12-.35,.28-.71,.49-1.07,.21-.36,.46-.71,.75-1.04,.29-.33,.61-.55,.96-.67Z"/>
    <path class="cls-11" d="M1095.24,1107.02c-.12,.28-.28,.49-.47,.61-.2,.13-.61,.19-1.25,.19s-1.03-.07-1.26-.21c-.23-.14-.35-.34-.35-.6-.07-.63-.09-1.42-.05-2.35s.02-1.8-.05-2.6c-.07-1.64-.18-3.39-.33-5.25-.15-1.86-.32-3.75-.49-5.67-.18-1.92-.36-3.83-.54-5.74-.19-1.91-.36-3.73-.51-5.47-.15-1.74-.28-3.36-.39-4.84s-.16-2.77-.16-3.84c0-.63,.24-1.28,.72-1.95s1.14-1.43,1.98-2.3c.56-.63,1.11-1.17,1.63-1.61s.96-.67,1.32-.67c.16,0,.31,.06,.44,.18,.13,.12,.19,.23,.19,.35,.02,1.45,.08,3.02,.16,4.7s.18,3.42,.3,5.21c.12,1.79,.24,3.6,.37,5.42,.13,1.83,.25,3.59,.35,5.28,.11,1.7,.19,3.3,.26,4.81,.07,1.51,.11,2.85,.11,4.02,0,1.31-.07,2.58-.19,3.83-.13,1.24-.29,2.4-.47,3.47-.19,1.08-.4,2.05-.63,2.91-.23,.87-.46,1.57-.67,2.11Z"/>
  </g>
  <path id="path8" class="cls-19" d="M923.5,274.02c-7.04,1-12.33-5.28-12.57-10.85-.22-5.21,.91-8.61,2.1-12.19-3.36,1.22-5.95,3.25-9.33,4-7.56,1.67-14.95-2.4-16.56-8.38-1.65-6.1,.49-11.78,2.67-16.38-2.78,1.11-6.91,2.24-10.28,.95-6.88-2.62-10-15.7-1.9-25.89-6.71-1.12-13.12-14.58,1.9-31.42-6.47,10.16-9.27,23.67-2.67,25.32,6.47,1.63,10.46-3,13.71-5.9,6.36-5.69,13.95-12.75,21.52-15.61,1.32-.48,1.86-.55,2.86-.76-.73-3.67-1.7-8.55-.76-13.14,.75-3.7,4.98-10.39,7.24-10.85,.75-.15,2.86,1.09,4.38,2.67,.8,.83,1.68,1.7,2.66,2.48-.55-4.74-2.81-23.53-4.76-26.47,1.01-2.42,2.1-4.76,3.43-6.85,2.29,6.28,4.03,11.33,7.04,18.47-1.69,.1-1.77-1.31-3.24-1.52,.85,4.37,1.24,8.89,1.71,12.38,.38,2.8,.79,5.07,1.25,7.83,3.22,4.12,8.3,4.18,12.27,3.59-1.46-10.03-2.86-21.11-4.38-31.42-.4-2.69-1.21-5.74-2.28-7.62,1.27-2.09,2.32-4.41,3.43-6.66,2.55,6.37,3.7,10.55,7.05,18.47-1.17-.64-1.39-1.27-3.05-1.52,.51,7.44,2.46,16.77,3.24,24.37,.23,2.25-.13,3.72,1.52,4.38,4.08-.61,9.66-1.38,13.33-3.05-.81-4.56-1.13-6.88-2.1-12.76-2.98-.9-6.49-1.35-9.52-2.09,.7-2.16,2.15-3.56,2.86-5.71,2.03-1.19,3.68-1.79,5.71-1.9-.26-3.83-.58-7.51-1.33-11.04-.27-1.25-1.56-2.62-1.52-3.81,1.01-2.11,1.68-4.57,3.05-6.47,3.13,7.06,4.54,10.47,8,17.9-1.41-.67-2.27-1.44-3.24-1.52,.05,1.66,.36,3.69,.57,5.33,6.61,1.64,12.81,4.7,19.23,5.9-.31-4.79-.58-6.79-1.33-12.76-.7-.63-.85-1.82-1.33-2.67,1.3-2.19,2.19-4.79,3.81-6.66,2.17,6.03,4.22,11.82,6.66,18.28-1.14-.46-2.21-1-3.05-1.33,.25,2.47,.66,4.56,.95,6.85,7.2,2.55,18.32,2.82,25.9,3.81-1.53,2.28-2.42,5.2-4.38,7.04-6.12-1.84-14.45-1.56-19.99,.57,.6,4.36,1.2,9.41,1.71,13.14,6.47,.83,13.04,1.55,18.47,3.43,2.61,.37,5.25,.71,7.24,1.71-1.1,1.95-1.22,4.87-2.67,6.47-2.63,0-4.53,.82-6.66,1.71-4.76,2.01-10.23,3.86-14.47,6.09,.53,11.81,3.12,26.93,.95,38.65-.36,1.97-1.01,4.77-2.66,5.9,.12-9-.36-18.09-1.14-26.47-.73-5.37-1.07-10.79-2.19-16.09-2.76,1.24-6.22,2.36-8.48,4.09,1.03,3.02,1.79,7.07,1.33,10.47-.08,.38-.09,.52-.09,.74,1.07-1.23,1.97-2.1,3.9-2.08,1.16,1.68,.74,4.17,.38,6.28-.48,2.86-1.7,6.41-2.1,8.95-.41,2.67-.55,6.18,0,8.57,.65,2.83,3.29,6.09,5.14,6.86,2.53,1.05,6.39,.33,8.19-.76,4.21-2.54,6.51-8.27,6.86-14.47-.41-5.77-1.35-11.92-3.24-17.33,.8-2.29,2.11-4.12,3.62-6.47,1.64,4.02,2.25,7.55,3.05,12,.91,5.06,.94,11.79,1.71,17.14,.34,2.37,4.87,6.88,7.62,7.62,3.03,.82,5.72-.28,7.24-1.33,3.31-2.3,.24-6.66-1.14-10.47-1.89-5.28-3.78-10.54-4.59-16.09-.23-1.35-.61-2.46-1.69-3.33,1.25-1.67,1.38-4.46,2.67-6.09,2.65,3.7,5.82,6.87,7.42,11.61-.79,.48-1.79-1.13-2.86-.38,1.37,7.76,3.1,8.65,4.38,13.33,.89,3.27,.77,7.85,0,11.8-1.17,5.96-5.6,10.05-12.76,8.57-5.47-1.14-8.36-6.63-10.47-11.42-2.13,4.73-3.55,9.52-8.19,12.76-3.6,2.02-8.6,1.49-10.47,0-6.16-4.05-6.56-14.92-4.57-23.61,.37-1.82,.66-3.03,.38-4.38-1.13-.05-1.87,1.5-2.28,2.66-1.37,3.79-1.79,8.97-2.48,13.71-.68,4.7-2.8,11.83-5.14,13.52-5.04,3.65-8.87-3.57-9.85-5.95-7.45,4.26-17.25,7.89-24.23,16.62-1.01,1.12-2.28,2.17-2.86,3.05-.71,1.09-.38,1.95-.57,3.24-.89,6.08-2.77,14.61,3.43,15.8,2.16,.19,4.46-.21,5.71-.76,2.89-1.29,6.05-3.92,8.57-6.28,8.1-7.61,14.23-18.71,24.75-23.04,3.01-.91,8.3-1.24,11.23,0,.7-.64,.74-1.92,2.1-1.9,3.81,5.08,11.08,8.85,20.01,8.19-1.58-2.22-3.2-5.43-4.97-8.38-.89-.93-1.57-1.09-2.09-1.9,.71-2.08,.92-4.66,1.52-6.86,3.15,3.26,6.51,6.79,9.9,9.52-.79,.64-2.15-.48-2.67,.38,1.62,2.56,2.7,4.38,3.81,6.28,.52,.89,3.64-.83,5.33-1.52,4.41-1.79,8.62-4.62,11.42-7.62,14.65-15.34,15.91-57.07,.57-83.02-6.7-12.65-15.51-21.75-26.09-29.89-13.45-9.69-29.09-15.79-45.51-17.14-10.29-.52-30.66,2.48-31.61,3.24-23.02,4.16-42.62,23.67-47.22,31.04-7.33,10-12.63,20.8-15.99,32.75-.75,2.96-1.64,5.7-2.09,8.76-2.32,15.64,.13,32.23,4,43.6,5.47,13.72,13.57,26.55,26.09,35.8,17.86,13.74,40.25,22.78,60.93,19.23,5.7-1.01,14.9-4.97,21.52-8.57v3.24c1.02,2.26,4.31,2.95,6.86,2.1,2.5-.85,5.97-3.95,7.04-6.47,1-2.33,.15-7.52,3.62-5.9-.5,3.23,1.14,5.77,3.62,5.9,2.84,.15,4.79-1.56,5.52-4.38,.69-2.74-.88-7.91,1.33-8.19,.78-.1,1.21,2.36,2.09,3.24,.68,.67,1.28,.5,1.71,1.33,2.51,1.06,6.62,1.2,8.76,0,2.79-1.56,.25-3.96-.95-5.52-1.05-1.35-1.51-2.04-2.86-3.43-4.09,.74-8.08,.21-11.81,0,.14,3.04,.21,7.83-2.47,9.14-6.93-2.02-11.01-6.89-12.19-14.66-1.96-1.14-6.57-1.37-9.33-.95-7.2,2.07-12.56,8.45-17.14,14.09-3.17,3.37-6.43,6.81-9.71,9.71-1.74,1.54-3.83,3.23-5.9,4-7.29,2.71-12.54-2.02-13.52-8.19-.37-2.3-.29-5.14,0-7.24,.26-1.84,.83-3.68,.95-5.33-2.13,2.75-3.71,5.28-6.09,7.23-1.8,1.47-4.42,2.86-7.04,3.24Zm132.6-55.22c-1.87,10.54-4.89,21.02-11.23,29.89-4.92,6.02-11.68,10.22-19.42,13.52,.86,3.83,2.87,9.83,1.14,14.66-1.44,1.44-2.61,3.13-4.95,3.43-3.59,.45-7.04-1.87-9.52-3.05-.71,5.05-2.86,11.52-8.95,11.04-2.6-.21-3.31-1.93-5.14-3.24-1.43,1.22-1.88,3.56-3.24,5.33-1.9,2.48-6.6,6.06-11.42,4.19-2.3-.9-3.24-3.11-4.19-5.71-19.8,11.03-41.3,8.76-55.03,3.43-6.13-2.22-12.04-4.98-17.52-8.19-14.31-8.46-26.45-20-34.27-34.65-4.09-7.73-7.25-16.06-9.33-24.56-2.79-13.57-2.28-29.56,.76-43.98,1.7-3.94,2.36-8.12,4-12,4.7-11.07,10.69-20.71,18.47-29.32,4.94-5.47,10.56-10.88,16.76-15.04,12.16-8.34,25.62-13.84,40.17-15.99,21.1-2.91,33.45-.73,51.6,4.95,23.94,10.39,41.81,28.06,53.69,51.6,7.81,17.25,9.34,35.02,7.61,53.69Zm-51.36-36.18c-3.09-1.29-5.1-1.26-7.52-1.91,0,1.49,.19,2.45,.29,4.19,2.41-.76,5.08-1.27,7.23-2.28Zm-12.57,4.57c-.42-2.95-.46-4.64-1.14-7.24-6.41-1.01-11.58-1.68-18.68-1.47,.16,2.59,.72,7.17,.81,9.71,2.29,1.89,3.57,2.85,5.12,4.8,4.88-1.78,9.12-3.92,13.89-5.81Zm-1.9-15.8c-.59-2.58-.52-5.16-1.32-10.38-4.94,1.52-13.31,4.69-18.29,6.66,.07,.88,.33,2.06,.57,2.76,6.04-.19,13.26,.9,19.04,.95Zm-2.86-17.23c-5.08-1.55-10.32-2.95-15.42-4.48-.71,.24-.67,1.24-1.33,1.52-.3-.47-1.43-.46-1.81-.39,.51,2.44,.95,7,1.43,10.1,5.63-1.96,11.64-4.22,17.14-6.76Zm-6.28,65.02c.65-3.26,2.37-6.37,3.87-9.18-.08-.1-.39-.1-.92-.11-3.27-.84-5.42-1.05-6.95-3.47-.74-1.18-.62-2.78-1.52-4.19-.36,.02-.64,.13-.76,.38,.96,7.53,1.75,15.07,1.14,22.66-.69,4.05-1.77,6.09-3.24,8.95-.51,1.01-2.5,3.51-3.43,4.38,.47,1.23,2.33,2.8,4.76,2.67,4.41-2.82,5.11-8.88,5.9-13.71,.45-2.81,.51-5.73,1.14-8.38Zm-8.38,6.48c.14-2.33-.3-5.78-.57-8.76-.47-4.09-.62-8.23-1.61-12.24-.06,0-.61,.24-.67,.24-22.33,11.06-35.25,31.52-55.22,44.94-1.41,3.95-5.5,20.63,8.38,18.28,4.53-.77,8.46-6.24,11.42-9.71,3.26-3.82,6.13-8.47,9.71-11.42,3.27-2.7,6.7-4.38,9.9-6.28,3.31-1.97,6.86-3.48,10.47-5.9-.07-2.25-.57-5.29-.57-8s.3-5.29,.82-7.14c.07-.25,.66-.19,.9-.29-.56,4.78,.02,9.82,.95,13.71,2.94-1.25,5.87-3.6,6.1-7.43Zm-8.95-24.75c1.84-1.31,4.63-2.71,5.81-3.48,.04-.86-.41-2.21-.58-3.38-1.7-1.32-3.6-1.84-5.8-2.85-5.47-2.53-9.29-4.89-7.62-13.33,1.82-4.44,6.17-6.12,10.47-7.23-.35-.89-.16-1.32-.38-1.66-3.31,1.13-10.15,3.07-13.52,3.94,1.09,9.5,2.73,24.67,.38,33.51-.21,.8-.61,2.25-1.71,2.29,.05-12.18-1.89-24.01-3.24-35.42-4.45-.06-8.86-1.16-11.99-1.9,.77,5.2,1.53,10.52,1.33,17.14-.83,2.09-1.81,4.03-2.48,6.28-4.51,8.69-14.92,10.93-22.85,15.99-5.63,3.59-10.1,7.68-14.47,12.38-1.36,1.46-3.43,2.87-4.38,4.57-.64,1.14-2.02,4.7-2.2,5.43-.74,3.09-1.25,6.74-.28,9.99,2.13,5.6,10.33,5.21,16.18,3.43,16.61-6.04,26.79-21.96,39.98-32.56,5.56-4.47,11.21-8.76,17.33-13.14Zm4.33-14.61c-.33-2.91-.69-5.22-1.09-7.48-1.75,.52-7.47,.12-7.81,2.09-.18,1.06,2.15,2.56,3.05,3.05,1.9,1.02,3.9,2.03,5.85,2.34Zm-34.8,4.32c.74-2.44-.32-5.77-.95-7.62-1.89,.97-1.41,4.3-3.24,5.33-3.47-2.47-5.74-4.39-11.04-4.38-9.51,.02-15.67,6.5-20.75,11.23-4.87,4.55-9.46,10.07-17.9,10.09-6,5.58-7.64,23.62,4.95,20.75,9.15-4.35,14.21-13.74,22.47-19.42,3.85-2.37,8.01-4.08,12-6.09,4.12-2.08,8.62-3.77,11.8-6.47,.84-.72,2.55-3.07,2.66-3.43Zm-1.14-8.95c-.65-4.38-1.1-8.84-1.79-13.32-.23-.62-.83-.99-1.64-1.72-1.63-1.46-4.66-6.76-7.04-6.66-1.77,.07-5.89,4.55-5.33,10.66,1.53,6.73,11.1,7.15,15.8,11.04Zm105.48,17.71c1.55,13.21,3.97,29.21-.19,39.79-1.5-24-5.27-47.78-8.73-71.55-.48-2.91-1.15-5.62-2.31-7.84,1.21-2.22,2.23-4.63,3.62-6.66,2.54,5.62,4.09,10.63,6.86,17.9-.79,.87-2.28-2.23-3.54-2.15,.55,8.16,2.57,17.06,3.54,25.19,.17,1.71,.56,3.53,.76,5.33Zm-.19,65.5c-.87,2.3-2.04,4.31-3.43,6.09-2.61-.94-4.35-2.75-6.47-4.19,.92-2.38,2.5-4.1,3.43-6.47,2.53,1.15,4.72,2.64,6.47,4.57Zm-88.35-60.93c.67,2.63-2.36,4.85-3.43,6.85-2.46-1.22-4.44-2.92-6.66-4.38,.94-2.67,2.56-4.67,4-6.85,.88,.86,5.74,2.97,6.09,4.38Zm-2.48-12.57c.31,2.31-2.53,4.42-3.43,6.47-2.52-1.16-4.48-2.88-6.66-4.38,.72-2.64,2.49-4.24,3.43-6.66,1.52,.45,6.46,3.07,6.66,4.57Zm-40.94,33.89c2.19,1.68,5.22,2.52,6.47,5.14-.99,2.37-2.17,4.56-3.62,6.47-2.11-1.7-4.74-2.88-6.66-4.76,.86-1.94,2.54-4.7,3.81-6.85Z"/>
</svg>